# Blender 4.4.3
# www.blender.org
o Glass
v 3.587840 2.672392 -3.762464
v 3.587841 0.035147 -3.762464
v 4.640971 2.672392 -3.762464
v 4.640972 0.035147 -3.762464
v 0.717755 2.672392 -3.762464
v 0.717756 0.035147 -3.762464
v 1.770886 2.672392 -3.762464
v 1.770887 0.035147 -3.762464
v 0.301230 0.079336 -1.363943
v 0.308058 0.079336 -1.949280
v 0.301230 2.198951 -1.363943
v 0.308058 2.198951 -1.949280
v 0.257842 0.079336 -2.540795
v 0.251011 0.079336 -1.998135
v 0.257842 2.198951 -2.540795
v 0.251011 2.198951 -1.998135
v 3.448403 1.086114 -0.312064
v 3.448403 2.214313 -0.312064
v 1.625113 2.214314 -0.311139
v 1.625113 1.086114 -0.311139
vn -0.0000 -0.0000 -1.0000
vn 0.9999 -0.0000 0.0117
vn 0.9999 -0.0000 0.0126
vn -0.4583 0.4198 -0.7834
vn 0.5382 0.5873 -0.6045
vn 0.3533 -0.3538 -0.8660
vn -0.3537 -0.3533 -0.8660
vt 1.514051 0.210394
vt 1.514051 0.000001
vt 1.586548 0.210397
vt 1.586548 0.420782
vt 1.499147 0.210394
vt 1.499147 0.000001
vt 1.560297 0.000001
vt 1.560297 0.210386
vt 1.644053 0.589929
vt 1.597746 0.589875
vt 1.597745 0.420784
vt 1.644053 0.420838
vt 1.640902 0.379537
vt 1.597975 0.379487
vt 1.597975 0.210395
vt 1.640902 0.210446
vt 1.907974 0.420805
vt 1.907974 0.565696
vt 1.997979 0.565675
vt 1.997979 0.420784
s 1
f 2/1/1 1/2/1 3/3/1 4/4/1
f 6/5/1 5/6/1 7/7/1 8/8/1
f 9/9/2 10/10/2 12/11/2 11/12/2
f 14/13/3 13/14/3 15/15/3 16/16/3
f 17/17/4 20/18/5 19/19/6 18/20/7
