# Blender 4.4.3
# www.blender.org
o Plane.001
v 62.500000 0.000000 0.000000
v 68.500000 0.000000 0.000000
v 62.500000 0.000000 -6.000000
v 68.500000 0.000000 -6.000000
vn -0.0000 1.0000 -0.0000
vt 0.074704 0.011584
vt 0.378403 0.315282
vt 0.074704 0.315282
vt 0.378403 0.011584
s 0
f 2/1/1 3/2/1 1/3/1
f 2/1/1 4/4/1 3/2/1
o Cube
v 65.000000 0.000000 -2.500000
v 65.000000 1.000000 -2.500000
v 65.000000 0.000000 -3.500000
v 65.000000 1.000000 -3.500000
v 66.000000 0.000000 -2.500000
v 66.000000 1.000000 -2.500000
v 66.000000 0.000000 -3.500000
v 66.000000 1.000000 -3.500000
vn -1.0000 -0.0000 -0.0000
vn -0.0000 -0.0000 -1.0000
vn 1.0000 -0.0000 -0.0000
vn -0.0000 -0.0000 1.0000
vn -0.0000 -1.0000 -0.0000
vn -0.0000 1.0000 -0.0000
vt 0.479636 0.720214
vt 0.580869 0.618981
vt 0.580869 0.720214
vt 0.682102 0.618981
vt 0.682102 0.720214
vt 0.783335 0.517748
vt 0.783335 0.618981
vt 0.783335 0.720214
vt 0.884568 0.112817
vt 0.783335 0.011584
vt 0.884568 0.011584
vt 0.884568 0.214049
vt 0.783335 0.112817
vt 0.479636 0.618981
vt 0.682102 0.517748
vt 0.783335 0.214049
s 0
f 6/5/2 7/6/2 5/7/2
f 8/7/3 11/8/3 7/9/3
f 12/8/4 9/10/4 11/11/4
f 10/9/5 5/11/5 9/12/5
f 11/13/6 5/14/6 7/15/6
f 8/16/7 10/17/7 12/13/7
f 6/5/2 8/18/2 7/6/2
f 8/7/3 12/6/3 11/8/3
f 12/8/4 10/19/4 9/10/4
f 10/9/5 6/8/5 5/11/5
f 11/13/6 9/17/6 5/14/6
f 8/16/7 6/20/7 10/17/7
