# Blender 4.4.3
# www.blender.org
o Cube.060
v 5.589535 4.893960 -5.762427
v 8.051821 4.893960 -9.297682
v 0.501535 3.580767 -6.640368
v 6.828479 3.580767 -7.550569
v 3.041532 4.893960 -2.458002
v 3.876553 4.893960 -2.691256
v 2.622726 4.893960 -2.435881
v 1.810242 3.580767 -2.604289
v 3.514948 3.580767 -2.498401
v 3.514948 4.893960 -2.498401
v 1.796885 4.893960 -2.553434
v 1.796885 3.580767 -2.553434
v 5.256327 3.580767 -3.897338
v 4.669806 4.893960 -3.185310
v 3.910391 4.893960 -2.706733
v 5.243580 3.580767 -3.873526
v 0.770690 3.580767 -6.991463
v 0.790351 3.580767 -3.374643
v 1.776302 3.580767 -2.612669
v 1.058630 3.580767 -3.075426
v 1.420475 3.580767 -2.796059
v 5.379896 3.580767 -4.263985
v 8.051821 3.580767 -9.297682
v 0.350509 3.580767 -6.276832
v 8.028068 3.580767 -9.263760
v 3.500903 3.580767 -2.552028
v 3.041532 3.580767 -2.458002
v 3.876553 3.580767 -2.691256
v 2.622726 3.580767 -2.435881
v 2.623322 3.580767 -2.398657
v 2.623322 4.893960 -2.398657
v 8.096805 4.893960 -9.266184
v 8.096805 3.580767 -9.266184
v 5.589535 3.580767 -5.762427
v 4.988020 3.580767 -3.486198
v 4.669806 3.580767 -3.185310
v 3.910391 3.580767 -2.706733
v 0.200894 3.580767 -5.459435
v 0.790351 4.893960 -3.374643
v 1.776302 4.893960 -2.612669
v 1.058630 4.893960 -3.075426
v 1.420475 4.893960 -2.796059
v 5.605137 4.893960 -5.803456
v 9.251410 4.893960 -11.010873
v 5.605137 3.580767 -5.803456
v 9.251410 3.580767 -11.010873
v 2.476128 4.893960 -7.994412
v 2.476128 3.580767 -7.994412
v 3.699469 3.580767 -9.741525
v 4.899058 3.580767 -11.454716
v 3.699469 4.893960 -9.741525
v 4.899058 4.893960 -11.454716
v 6.122401 3.580767 -13.201829
v 6.122401 4.893960 -13.201829
v 4.922812 3.580767 -11.488638
v 4.922812 4.893960 -11.488638
v 8.028068 4.893960 -9.263760
v 6.828479 4.893960 -7.550569
v 3.675717 3.580767 -9.707603
v 3.675717 4.893960 -9.707603
v 6.804726 3.580767 -7.516647
v 6.804726 4.893960 -7.516647
v 2.442779 3.580767 -7.965683
v 1.092182 3.580767 -7.220891
v 0.788406 3.580767 -7.010695
v 2.442779 4.893960 -7.965683
v 1.092182 4.893960 -7.220891
v 0.788406 4.893960 -7.010695
v 5.379896 4.893960 -4.263985
v 5.256327 4.893960 -3.897338
v 0.200894 4.893960 -5.459435
v 0.350509 4.893960 -6.276832
v 0.770690 4.893960 -6.991463
v 0.501535 4.893960 -6.640368
v 4.988020 4.893960 -3.486198
v 5.243580 4.893960 -3.873526
v 0.198678 3.580767 -5.423700
v 0.381976 3.580767 -4.162570
v 0.196392 3.580767 -5.023256
v 0.263278 3.580767 -4.561392
v 0.772443 3.580767 -3.405426
v 0.198678 4.893960 -5.423700
v 0.381976 4.893960 -4.162570
v 0.196392 4.893960 -5.023256
v 0.263278 4.893960 -4.561392
v 0.772443 4.893960 -3.405426
v 3.500903 4.893960 -2.552028
v 1.810242 4.893960 -2.604289
v 5.029947 3.580767 -3.450718
v 5.029947 4.893960 -3.450718
v 3.927104 3.580767 -2.653010
v 3.927104 4.893960 -2.653010
v 5.403257 3.580767 -4.251369
v 5.403257 4.893960 -4.251369
v 0.146484 4.893960 -5.468411
v 0.297507 4.893960 -6.291704
v 1.020654 3.580767 -3.034056
v 0.748940 3.580767 -3.336770
v 1.390225 3.580767 -2.748722
v 1.750278 3.580767 -2.562903
v 4.682547 4.893960 -3.161674
v 4.682547 3.580767 -3.161674
v 3.894665 3.580767 -2.638963
v 3.894665 4.893960 -2.638963
v 5.638905 4.893960 -5.746789
v 5.638905 3.580767 -5.746789
v 0.453868 4.893960 -6.667655
v 0.727173 4.893960 -7.024963
v 9.296393 4.893960 -10.979375
v 3.047352 4.893960 -2.402682
v 5.289456 4.893960 -3.843341
v 1.020654 4.893960 -3.034056
v 0.748940 4.893960 -3.336770
v 1.390225 4.893960 -2.748722
v 1.750278 4.893960 -2.562903
v 5.308682 4.893960 -3.880423
v 0.146484 3.580767 -5.468411
v 0.297507 3.580767 -6.291704
v 0.453868 3.580767 -6.667655
v 0.727173 3.580767 -7.024963
v 9.296393 3.580767 -10.979375
v 5.289456 3.580767 -3.843341
v 6.873462 3.580767 -7.519071
v 6.873462 4.893960 -7.519071
v 3.047352 3.580767 -2.402682
v 5.308682 3.580767 -3.880423
v 5.650121 4.893960 -5.771958
v 5.650121 3.580767 -5.771958
v 4.877828 4.893960 -11.520136
v 6.077417 4.893960 -13.233327
v 6.849710 4.893960 -7.485149
v 4.877828 3.580767 -11.520136
v 6.077417 3.580767 -13.233327
v 6.849710 3.580767 -7.485149
v 8.073051 4.893960 -9.232262
v 2.431144 4.893960 -8.025909
v 3.630733 4.893960 -9.739100
v 8.073051 3.580767 -9.232262
v 2.431144 3.580767 -8.025909
v 3.630733 3.580767 -9.739100
v 3.654486 3.580767 -9.773023
v 4.854075 3.580767 -11.486214
v 3.654486 4.893960 -9.773023
v 4.854075 4.893960 -11.486214
v 0.755136 3.580767 -7.054528
v 1.068520 3.580767 -7.263214
v 2.417119 3.580767 -8.006825
v 0.755136 4.893960 -7.054528
v 1.068520 4.893960 -7.263214
v 2.417119 4.893960 -8.006825
v 0.330634 3.580767 -4.140671
v 0.209241 3.580767 -4.548221
v 0.141190 3.580767 -5.018201
v 0.143343 3.580767 -5.422827
v 0.723226 3.580767 -3.378879
v 0.330634 4.893960 -4.140671
v 0.209241 4.893960 -4.548221
v 0.141190 4.893960 -5.018201
v 0.143343 4.893960 -5.422827
v 0.723226 4.893960 -3.378879
v 9.303759 3.580767 -10.990416
v 9.303759 4.893960 -10.990416
v 9.258776 3.580767 -11.021914
v 9.258776 4.893960 -11.021914
v 7.331229 3.580767 -14.928215
v 7.331229 4.893960 -14.928215
v 6.131640 3.580767 -13.215024
v 6.131640 4.893960 -13.215024
v 6.086656 4.893960 -13.246522
v 7.286245 4.893960 -14.959713
v 6.086656 3.580767 -13.246522
v 7.286245 3.580767 -14.959713
v 10.458364 4.893960 -12.735105
v 10.458364 3.580767 -12.735105
v 10.503347 4.893960 -12.703607
v 10.503347 3.580767 -12.703607
vn 0.7445 -0.0000 -0.6676
vn 0.6764 -0.0000 -0.7366
vn -0.6759 -0.0000 0.7370
vn -0.5425 -0.0000 0.8401
vn 0.7936 -0.0000 0.6084
vn 0.8620 -0.0000 0.5069
vn -0.8192 -0.0000 -0.5736
vn 0.5419 -0.0000 -0.8404
vn -0.7681 -0.0000 -0.6404
vn -0.8347 -0.0000 -0.5507
vn 0.4581 -0.0000 -0.8889
vn -0.5861 -0.0000 -0.8102
vn -0.1311 -0.0000 -0.9914
vn -0.2690 -0.0000 -0.9631
vn -0.5332 -0.0000 -0.8460
vn -0.9476 -0.0000 -0.3194
vn -0.9844 -0.0000 -0.1759
vn 0.1180 -0.0000 -0.9930
vn 0.2030 -0.0000 -0.9792
vn -0.3475 -0.0000 -0.9377
vn -0.9904 -0.0000 -0.1386
vn 0.8192 -0.0000 0.5736
vn -0.7943 -0.0000 -0.6075
vn -0.8628 -0.0000 -0.5056
vn 0.9691 -0.0000 0.2467
vn -0.7442 -0.0000 0.6680
vn 0.4999 -0.0000 0.8661
vn 0.5690 -0.0000 0.8223
vn 0.4829 -0.0000 0.8757
vn 0.9837 -0.0000 0.1800
vn 0.9775 -0.0000 -0.2108
vn 0.9152 -0.0000 -0.4031
vn 0.9972 -0.0000 -0.0747
vn 0.8888 -0.0000 -0.4583
vn 1.0000 -0.0000 0.0057
vn 0.7469 -0.0000 0.6650
vn 0.8342 -0.0000 0.5514
vn -0.4586 -0.0000 0.8886
vn 0.5861 -0.0000 0.8103
vn 0.1112 -0.0000 0.9938
vn 0.2686 -0.0000 0.9633
vn 0.5585 -0.0000 0.8295
vn 0.9690 -0.0000 0.2471
vn 0.9847 -0.0000 0.1743
vn -0.1197 -0.0000 0.9928
vn -0.1841 -0.0000 0.9829
vn 0.3472 -0.0000 0.9378
vn 0.9878 -0.0000 0.1557
vn -0.9687 -0.0000 -0.2483
vn -0.4972 -0.0000 -0.8677
vn -0.5543 -0.0000 -0.8323
vn -0.4829 -0.0000 -0.8757
vn -0.9836 -0.0000 -0.1804
vn -0.9775 -0.0000 0.2110
vn -0.9155 -0.0000 0.4024
vn -0.9972 -0.0000 0.0751
vn -0.8889 -0.0000 0.4581
vn -1.0000 -0.0000 -0.0053
vn -0.5736 -0.0000 0.8192
vn 0.5736 -0.0000 -0.8192
vn 0.8485 -0.0000 -0.5292
vn -0.7965 -0.0000 0.6046
vn 0.6100 -0.0000 -0.7924
vn -0.1628 -0.0000 0.9867
vn -0.0158 -0.0000 -0.9999
vn 0.4747 -0.0000 0.8801
vn -0.6749 -0.0000 -0.7379
vn 0.8861 -0.0000 0.4634
vn -0.9672 -0.0000 -0.2540
vn 0.9449 -0.0000 -0.3273
vn -0.9549 -0.0000 0.2971
vn 0.5497 -0.0000 -0.8354
vn -0.3074 -0.0000 0.9516
vn 0.3020 -0.0000 -0.9533
vt 2.081731 0.926222
vt 2.081731 1.000000
vt 2.055940 1.000000
vt 2.055940 0.926222
vt 2.967484 0.993590
vt 2.937520 0.993590
vt 2.937520 0.919812
vt 2.967484 0.919812
vt 2.913401 0.809683
vt 2.987180 0.809683
vt 2.987180 0.838074
vt 2.913401 0.838074
vt 2.807632 0.591742
vt 2.881410 0.591742
vt 2.881410 0.725962
vt 2.807632 0.725962
vt 2.026602 1.000000
vt 2.026602 0.926222
vt 2.961538 0.721980
vt 2.887760 0.721980
vt 2.887760 0.692199
vt 2.961538 0.692199
vt 2.651037 0.881410
vt 2.651037 0.807632
vt 2.785256 0.807632
vt 2.785256 0.881410
vt 2.000912 1.000000
vt 2.000912 0.926222
vt 2.961538 0.750085
vt 2.887760 0.750085
vt 2.604454 0.766026
vt 2.604454 0.692247
vt 2.634546 0.692247
vt 2.634546 0.766026
vt 2.961538 0.807692
vt 2.887760 0.807692
vt 2.881350 0.445376
vt 2.955128 0.445376
vt 2.955128 0.470207
vt 2.881350 0.470207
vt 2.577539 0.766026
vt 2.524289 0.766026
vt 2.524289 0.692247
vt 2.577539 0.692247
vt 2.660257 0.692247
vt 2.660257 0.766025
vt 2.881350 0.567308
vt 2.955128 0.567308
vt 2.810837 0.862179
vt 2.810837 0.727960
vt 2.884615 0.727960
vt 2.884615 0.862179
vt 2.402183 0.974359
vt 2.402183 0.945489
vt 2.475961 0.945489
vt 2.475961 0.974359
vt 2.987179 0.863338
vt 2.913401 0.863338
vt 2.993590 0.993590
vt 2.993590 0.919812
vt 2.376602 0.711478
vt 2.376602 0.785256
vt 2.242383 0.785256
vt 2.242383 0.711478
vt 2.493590 0.788401
vt 2.493590 0.862179
vt 2.359370 0.862179
vt 2.359370 0.788401
vt 2.378601 0.785256
vt 2.378601 0.711478
vt 2.512820 0.711478
vt 2.512820 0.785256
vt 2.629808 0.846093
vt 2.629808 0.919872
vt 2.495588 0.919872
vt 2.495588 0.846093
vt 2.811274 0.865324
vt 2.811274 0.939102
vt 2.787567 0.939102
vt 2.787567 0.865324
vt 2.910256 0.865324
vt 2.910256 0.939102
vt 2.987179 0.916667
vt 2.913401 0.916667
vt 2.692247 0.357726
vt 2.766026 0.357726
vt 2.766026 0.384431
vt 2.692247 0.384431
vt 2.692247 0.327776
vt 2.766026 0.327776
vt 2.766026 0.439103
vt 2.692247 0.439103
vt 2.692247 0.302077
vt 2.766026 0.302077
vt 2.719796 0.884555
vt 2.750000 0.884555
vt 2.750000 0.958333
vt 2.719796 0.958333
vt 2.221550 0.788401
vt 2.355769 0.788401
vt 2.355769 0.862180
vt 2.221550 0.862180
vt 2.911518 0.993590
vt 2.911518 0.919812
vt 2.690794 0.884555
vt 2.690794 0.958333
vt 2.277183 0.601518
vt 2.277183 0.570888
vt 2.350961 0.570888
vt 2.350961 0.601518
vt 2.632346 0.958333
vt 2.632346 0.884555
vt 2.884555 0.690705
vt 2.884555 0.666138
vt 2.958333 0.666138
vt 2.958333 0.690705
vt 2.277183 0.628733
vt 2.350961 0.628733
vt 2.350961 0.682692
vt 2.277183 0.682692
vt 2.277183 0.544903
vt 2.350961 0.544903
vt 2.884555 0.568983
vt 2.958333 0.568983
vt 2.402183 0.919358
vt 2.475961 0.919358
vt 2.842949 0.319306
vt 2.842949 0.453526
vt 2.769171 0.453526
vt 2.769171 0.319306
vt 2.000396 0.849298
vt 2.134615 0.849298
vt 2.134615 0.923077
vt 2.000396 0.923077
vt 2.865324 0.134615
vt 2.865324 0.000396
vt 2.939103 0.000396
vt 2.939103 0.134615
vt 2.878205 0.455524
vt 2.878205 0.589744
vt 2.804427 0.589744
vt 2.804427 0.455524
vt 2.300205 0.939102
vt 2.276042 0.939102
vt 2.276042 0.865324
vt 2.300205 0.865324
vt 2.399038 0.865324
vt 2.399038 0.939102
vt 2.402183 0.865641
vt 2.475961 0.865641
vt 2.472402 0.201923
vt 2.445112 0.201923
vt 2.445112 0.128145
vt 2.472402 0.128145
vt 2.502878 0.201923
vt 2.502878 0.128145
vt 2.390112 0.201923
vt 2.390112 0.128145
vt 2.528846 0.201923
vt 2.528846 0.128145
vt 2.544552 0.201923
vt 2.544552 0.128145
vt 2.548077 0.128145
vt 2.548077 0.201923
vt 2.563784 0.128145
vt 2.567308 0.128145
vt 2.567308 0.201923
vt 2.563784 0.201923
vt 2.309295 0.535256
vt 2.305770 0.535256
vt 2.305770 0.461478
vt 2.309295 0.461478
vt 2.353848 0.631410
vt 2.353848 0.557632
vt 2.357372 0.557632
vt 2.357372 0.631410
vt 2.001284 0.519231
vt 2.001284 0.445452
vt 2.004808 0.445452
vt 2.004808 0.519231
vt 2.304487 0.487179
vt 2.300963 0.487179
vt 2.300963 0.413401
vt 2.304487 0.413401
vt 2.599359 0.181090
vt 2.595835 0.181090
vt 2.595835 0.107312
vt 2.599359 0.107312
vt 2.000093 0.153846
vt 2.000093 0.080068
vt 2.003205 0.080068
vt 2.003205 0.153846
vt 2.046474 0.003145
vt 2.046474 0.076923
vt 2.042943 0.076923
vt 2.042943 0.003145
vt 2.576604 0.107312
vt 2.580128 0.107312
vt 2.580128 0.181090
vt 2.576604 0.181090
vt 2.040064 0.076923
vt 2.036525 0.076923
vt 2.036525 0.003145
vt 2.040064 0.003145
vt 2.023692 0.076923
vt 2.023692 0.003145
vt 2.027244 0.003145
vt 2.027244 0.076923
vt 2.009615 0.003144
vt 2.009615 0.076923
vt 2.006027 0.076923
vt 2.006027 0.003144
vt 2.022436 0.076923
vt 2.018834 0.076923
vt 2.018834 0.003145
vt 2.022436 0.003145
vt 2.016026 0.076923
vt 2.012421 0.076923
vt 2.012421 0.003145
vt 2.016026 0.003145
vt 2.006241 0.519231
vt 2.006241 0.445453
vt 2.009615 0.445453
vt 2.009615 0.519231
vt 2.033654 0.076923
vt 2.030102 0.076923
vt 2.030102 0.003145
vt 2.033654 0.003145
vt 2.001197 0.076923
vt 2.001197 0.003145
vt 2.004808 0.003145
vt 2.004808 0.076923
vt 2.294872 0.535256
vt 2.291348 0.535256
vt 2.291348 0.461478
vt 2.294872 0.461478
vt 2.022110 0.368590
vt 2.022110 0.294811
vt 2.025641 0.294811
vt 2.025641 0.368590
vt 2.362179 0.592888
vt 2.362179 0.666667
vt 2.358856 0.666667
vt 2.358856 0.592888
vt 2.514819 0.842949
vt 2.514819 0.769171
vt 2.649038 0.769171
vt 2.649038 0.842949
vt 2.865324 0.136614
vt 2.939102 0.136614
vt 2.939103 0.270833
vt 2.865324 0.270833
vt 2.272436 0.939103
vt 2.138216 0.939103
vt 2.138216 0.865324
vt 2.272436 0.865324
vt 2.296155 0.435837
vt 2.299680 0.435837
vt 2.299680 0.509615
vt 2.296155 0.509615
vt 2.554487 0.201923
vt 2.550963 0.201923
vt 2.550963 0.128145
vt 2.554487 0.128145
vt 2.573718 0.201923
vt 2.570194 0.201923
vt 2.570194 0.128145
vt 2.573718 0.128145
vt 2.583014 0.181090
vt 2.583014 0.107312
vt 2.586539 0.107312
vt 2.586539 0.181090
vt 2.560898 0.201923
vt 2.557373 0.201923
vt 2.557373 0.128145
vt 2.560898 0.128145
vt 2.531732 0.201923
vt 2.531732 0.128145
vt 2.535256 0.128145
vt 2.535256 0.201923
vt 2.592949 0.181090
vt 2.589425 0.181090
vt 2.589425 0.107312
vt 2.592949 0.107312
vt 2.935897 0.309691
vt 2.935897 0.443910
vt 2.862119 0.443910
vt 2.862119 0.309691
vt 2.538142 0.201923
vt 2.538142 0.128145
vt 2.541667 0.128145
vt 2.541667 0.201923
vt 2.665064 0.666667
vt 2.661540 0.666667
vt 2.661540 0.592889
vt 2.665064 0.592889
s 1
f 18/1/1 39/2/1 41/3/2 20/4/2
f 97/5/3 99/6/4 114/7/4 112/8/3
f 17/9/5 73/10/5 74/11/6 3/12/6
f 45/13/7 43/14/7 62/15/7 61/16/7
f 20/4/2 41/3/2 42/17/8 21/18/8
f 35/19/9 75/20/9 76/21/10 16/22/10
f 4/23/7 58/24/7 57/25/7 25/26/7
f 21/18/8 42/17/8 40/27/11 19/28/11
f 36/29/12 14/30/12 75/20/9 35/19/9
f 27/31/13 5/32/13 87/33/14 26/34/14
f 36/29/12 37/35/15 15/36/15 14/30/12
f 13/37/16 70/38/16 69/39/17 22/40/17
f 29/41/18 8/42/19 88/43/19 7/44/18
f 29/41/18 7/44/18 5/32/13 27/31/13
f 26/34/14 87/33/14 6/45/20 28/46/20
f 34/47/21 22/40/17 69/39/17 1/48/21
f 128/49/22 134/50/22 131/51/22 127/52/22
f 120/53/23 119/54/24 107/55/24 108/56/23
f 3/12/6 74/11/6 72/57/25 24/58/25
f 98/59/26 97/5/3 112/8/3 113/60/26
f 23/61/7 2/62/7 44/63/7 46/64/7
f 53/65/22 54/66/22 56/67/22 55/68/22
f 59/69/22 60/70/22 47/71/22 48/72/22
f 50/73/22 52/74/22 51/75/22 49/76/22
f 64/77/27 67/78/27 68/79/28 65/80/28
f 64/77/27 63/81/29 66/82/29 67/78/27
f 24/58/25 72/57/25 71/83/30 38/84/30
f 80/85/31 85/86/31 83/87/32 78/88/32
f 79/89/33 84/90/33 85/86/31 80/85/31
f 78/88/32 83/87/32 86/91/34 81/92/34
f 77/93/35 82/94/35 84/90/33 79/89/33
f 89/95/36 122/96/37 111/97/37 90/98/36
f 123/99/22 138/100/22 135/101/22 124/102/22
f 99/6/4 100/103/38 115/104/38 114/7/4
f 102/105/39 89/95/36 90/98/36 101/106/39
f 125/107/40 9/108/41 10/109/41 110/110/40
f 102/105/39 101/106/39 92/111/42 91/112/42
f 126/113/43 93/114/44 94/115/44 116/116/43
f 30/117/45 31/118/45 11/119/46 12/120/46
f 30/117/45 125/107/40 110/110/40 31/118/45
f 9/108/41 103/121/47 104/122/47 10/109/41
f 106/123/48 105/124/48 94/115/44 93/114/44
f 119/54/24 118/125/49 96/126/49 107/55/24
f 33/127/22 121/128/22 109/129/22 32/130/22
f 133/131/7 132/132/7 129/133/7 130/134/7
f 140/135/7 139/136/7 136/137/7 137/138/7
f 142/139/7 141/140/7 143/141/7 144/142/7
f 146/143/50 145/144/51 148/145/51 149/146/50
f 146/143/50 149/146/50 150/147/52 147/148/52
f 118/125/49 117/149/53 95/150/53 96/126/49
f 152/151/54 151/152/55 156/153/55 157/154/54
f 153/155/56 152/151/54 157/154/54 158/156/56
f 151/152/55 155/157/57 160/158/57 156/153/55
f 154/159/58 153/155/56 158/156/56 159/160/58
f 43/161/59 45/162/59 128/163/59 127/164/59
f 53/165/60 133/166/60 130/167/60 54/168/60
f 56/169/59 129/170/59 132/171/59 55/172/59
f 52/173/60 50/174/60 142/175/60 144/176/60
f 60/177/60 59/178/60 140/179/60 137/180/60
f 51/181/59 143/182/59 141/183/59 49/184/59
f 47/185/59 136/186/59 139/187/59 48/188/59
f 66/189/61 63/190/61 147/191/61 150/192/61
f 65/193/62 68/194/62 148/195/62 145/196/62
f 17/197/63 120/198/63 108/199/63 73/200/63
f 71/201/64 95/202/64 117/203/64 38/204/64
f 82/205/65 77/206/65 154/207/65 159/208/65
f 81/209/66 86/210/66 160/211/66 155/212/66
f 18/213/67 98/214/67 113/215/67 39/216/67
f 40/217/68 115/218/68 100/219/68 19/220/68
f 88/221/69 8/222/69 12/223/69 11/224/69
f 6/225/70 104/226/70 103/227/70 28/228/70
f 15/229/71 37/230/71 91/231/71 92/232/71
f 76/233/72 111/234/72 122/235/72 16/236/72
f 70/237/73 13/238/73 126/239/73 116/240/73
f 34/241/74 1/242/74 105/243/74 106/244/74
f 163/245/7 164/246/7 173/247/7 174/248/7
f 165/249/22 166/250/22 168/251/22 167/252/22
f 172/253/7 171/254/7 169/255/7 170/256/7
f 165/257/60 172/258/60 170/259/60 166/260/60
f 168/261/59 169/262/59 171/263/59 167/264/59
f 62/265/60 131/266/60 134/267/60 61/268/60
f 58/269/59 4/270/59 123/271/59 124/272/59
f 57/273/60 135/274/60 138/275/60 25/276/60
f 2/277/59 23/278/59 33/279/59 32/280/59
f 44/281/60 109/282/60 121/283/60 46/284/60
f 161/285/22 176/286/22 175/287/22 162/288/22
f 164/289/59 163/290/59 161/291/59 162/292/59
f 173/293/60 175/294/60 176/295/60 174/296/60
