# Blender 4.4.1
# www.blender.org
o Cube
v -3.359381 -0.098650 3.359381
v -0.652658 0.098650 -0.173230
v -3.359381 -0.098650 -3.359381
v 0.859438 0.536404 0.421684
v 3.359381 -0.098650 3.359381
v 0.652658 0.329624 -0.421684
v 3.359381 -0.098650 -3.359381
v -3.359381 0.098650 -3.359381
v -3.359381 0.098650 3.359381
v 3.359381 0.098650 -3.359381
v 3.359381 0.098650 3.359381
v -0.652658 1.449295 -0.652658
v -0.580888 0.445964 0.813514
v 0.652658 1.218322 -0.421684
v 0.859438 1.011541 0.421684
v 0.652658 0.098650 -0.173230
v 0.580888 0.445964 0.813514
v 0.652658 1.449295 -0.652658
v 1.670678 0.536404 0.421684
v 1.877458 0.329624 -0.421684
v 1.670678 1.011541 0.421684
v 1.877458 1.218322 -0.421684
v 0.652658 0.329624 0.421684
v 0.652658 1.218322 0.421684
v 1.877458 0.329624 0.421684
v 1.877458 1.218322 0.421684
v 0.950544 0.627509 0.039207
v 0.859438 0.536404 0.130313
v 0.922390 0.599356 0.043666
v 0.896993 0.573959 0.056607
v 0.876837 0.553803 0.076762
v 0.863897 0.540863 0.102160
v 0.859438 1.011541 0.130313
v 0.950544 0.920436 0.039207
v 0.863897 1.007082 0.102160
v 0.876837 0.994142 0.076762
v 0.896993 0.973986 0.056607
v 0.922390 0.948589 0.043666
v 1.670678 0.536404 0.130313
v 1.579573 0.627509 0.039207
v 1.666219 0.540863 0.102160
v 1.653279 0.553803 0.076762
v 1.633123 0.573959 0.056607
v 1.607726 0.599356 0.043666
v 1.579573 0.920436 0.039207
v 1.670678 1.011541 0.130313
v 1.607726 0.948589 0.043666
v 1.633123 0.973986 0.056607
v 1.653279 0.994142 0.076762
v 1.666219 1.007082 0.102160
v -0.580888 0.270154 0.841700
v -0.763446 0.098650 0.971121
v -0.652658 0.098650 0.767271
v -0.656433 0.173242 0.860710
v -0.667500 0.148970 0.874784
v -0.685107 0.128127 0.894323
v -0.708052 0.112133 0.917997
v -0.734772 0.102079 0.944191
v 0.763446 0.098650 0.971121
v 0.580888 0.270154 0.841700
v 0.652658 0.145397 0.778623
v 0.652658 0.098650 0.767271
v 0.734772 0.102079 0.944191
v 0.708052 0.112133 0.917997
v 0.685107 0.128127 0.894323
v 0.667500 0.148970 0.874784
v 0.656433 0.173242 0.860710
v -0.652658 1.449295 0.652658
v 0.652658 1.449295 0.652658
v -0.652658 0.199290 0.853061
v 0.652658 0.199290 0.853061
v -0.580888 0.404593 0.555462
v 0.580888 0.404593 0.555462
v -0.580888 0.228783 0.583649
v 0.580888 0.228783 0.583649
vn -1.0000 -0.0000 -0.0000
vn -0.0000 -0.0000 -1.0000
vn 1.0000 -0.0000 -0.0000
vn -0.0000 -0.0000 1.0000
vn -0.0000 -0.3345 -0.9424
vn -0.0000 -1.0000 -0.0000
vn -0.0000 1.0000 -0.0000
vn 0.9877 -0.0000 0.1564
vn 0.8910 -0.0000 0.4540
vn 0.7071 -0.0000 0.7071
vn 0.4540 -0.0000 0.8910
vn 0.1564 -0.0000 0.9877
vn -0.1564 -0.0000 0.9877
vn -0.4540 -0.0000 0.8910
vn -0.7071 -0.0000 0.7071
vn -0.8910 -0.0000 0.4540
vn -0.9877 -0.0000 0.1564
vn -0.0000 0.1564 0.9877
vn -0.0000 0.4540 0.8910
vn -0.0000 0.7071 0.7071
vn -0.0000 0.8910 0.4540
vn -0.0000 0.9877 0.1564
vn -0.0000 -0.9877 0.1564
vn -0.0000 -0.8910 0.4540
vn -0.0000 -0.7071 0.7071
vn -0.0000 -0.4540 0.8910
vn -0.0000 -0.1564 0.9877
vn -0.9865 0.1063 -0.1247
vn -0.9269 0.2741 -0.2563
vn -0.8498 0.4225 -0.3151
vn -0.7432 0.5845 -0.3254
vn -0.5642 0.7778 -0.2769
vn -0.2354 0.9635 -0.1279
vn 0.8362 0.4954 -0.2353
vn -0.0000 0.2818 0.9595
vn -0.0000 0.5016 0.8651
vn -0.0000 0.6839 0.7296
vn -0.0000 0.8286 0.5598
vn -0.0000 0.9336 0.3583
vn -0.0000 0.9920 0.1263
vn -0.0000 0.1583 0.9874
vn -0.0000 0.9874 -0.1583
vn -0.0000 -0.9874 0.1583
vt 0.375000 0.000000
vt 0.375000 0.250000
vt 0.625000 0.250000
vt 0.625000 0.000000
vt 0.375000 0.500000
vt 0.625000 0.500000
vt 0.375000 0.750000
vt 0.625000 0.750000
vt 0.375000 1.000000
vt 0.625000 1.000000
vt 0.225715 0.600715
vt 0.274285 0.600715
vt 0.875000 0.750000
vt 0.875000 0.500000
vt 0.271614 0.649285
vt 0.125000 0.500000
vt 0.274285 0.640691
vt 0.274285 0.649285
vt 0.274285 0.649285
vt 0.274285 0.647546
vt 0.274285 0.640691
vt 0.125000 0.750000
vt 0.221593 0.653407
vt 0.225715 0.644536
vt 0.225715 0.649285
vt 0.274285 0.609309
vt 0.221593 0.653407
vt 0.278407 0.653407
vt 0.274285 0.644536
vt 0.274285 0.609309
vt 0.274285 0.640691
vt 0.274285 0.640690
vt 0.274285 0.640691
vt 0.274285 0.640691
vt 0.274285 0.640691
vt 0.274285 0.640690
vt 0.225715 0.649285
vt 0.225575 0.649285
vt 0.225163 0.649285
vt 0.224508 0.649285
vt 0.223654 0.649285
vt 0.222660 0.649285
vt 0.221593 0.649285
vt 0.274285 0.648632
vt 0.274425 0.648942
vt 0.274837 0.649511
vt 0.275492 0.650301
vt 0.276346 0.651259
vt 0.277340 0.652318
vt 0.274425 0.649285
vt 0.274837 0.649285
vt 0.223654 0.651259
vt 0.222660 0.652318
vt 0.228386 0.649285
s 0
f 9/1/1 8/2/1 3/3/1 1/4/1
f 8/2/2 10/5/2 7/6/2 3/3/2
f 10/5/3 11/7/3 5/8/3 7/6/3
f 11/7/4 9/9/4 1/10/4 5/8/4
f 2/11/5 12/11/5 18/12/5 16/12/5
f 7/6/6 5/8/6 1/13/6 3/14/6
f 17/15/1 73/15/1 75/15/1 60/15/1
f 16/12/7 10/5/7 8/16/7 2/11/7
f 24/17/3 69/18/3 71/19/3 61/20/3 23/21/3
f 2/11/7 8/16/7 9/22/7 52/23/7 53/24/7
f 12/11/7 68/25/7 69/18/7 18/12/7
f 6/26/6 20/26/6 25/21/6 23/21/6
f 52/27/7 9/22/7 11/7/7 59/28/7
f 23/21/3 61/20/3 62/29/3 16/12/3 6/26/3
f 59/28/7 11/7/7 10/5/7 16/12/7 62/29/7
f 14/30/3 18/12/3 69/18/3 24/17/3
f 6/26/1 16/12/1 18/12/1 14/30/1
f 20/26/3 22/30/3 26/17/3 25/21/3
f 15/31/6 33/31/6 46/32/6 21/32/6
f 24/17/7 26/17/7 22/30/7 14/30/7
f 14/30/2 22/30/2 20/26/2 6/26/2
f 15/31/4 24/17/4 23/21/4 4/21/4
f 19/17/4 25/21/4 26/17/4 21/32/4
f 4/21/4 23/21/4 25/21/4 19/17/4
f 21/32/4 26/17/4 24/17/4 15/31/4
f 19/17/7 39/17/7 28/21/7 4/21/7
f 27/17/4 40/32/4 45/31/4 34/33/4
f 21/32/1 46/32/1 39/17/1 19/17/1
f 28/21/8 32/21/8 35/34/8 33/31/8
f 32/21/9 31/35/9 36/31/9 35/34/9
f 31/35/10 30/21/10 37/31/10 36/31/10
f 30/21/11 29/21/11 38/31/11 37/31/11
f 29/21/12 27/17/12 34/33/12 38/31/12
f 40/32/13 44/17/13 47/36/13 45/31/13
f 44/17/14 43/21/14 48/17/14 47/36/14
f 43/21/15 42/17/15 49/32/15 48/17/15
f 42/17/16 41/17/16 50/32/16 49/32/16
f 41/17/17 39/17/17 46/32/17 50/32/17
f 27/17/18 29/21/18 44/17/18 40/32/18
f 29/21/19 30/21/19 43/21/19 44/17/19
f 30/21/20 31/35/20 42/17/20 43/21/20
f 31/35/21 32/21/21 41/17/21 42/17/21
f 32/21/22 28/21/22 39/17/22 41/17/22
f 33/31/23 35/34/23 50/32/23 46/32/23
f 35/34/24 36/31/24 49/32/24 50/32/24
f 36/31/25 37/31/25 48/17/25 49/32/25
f 37/31/26 38/31/26 47/36/26 48/17/26
f 38/31/27 34/33/27 45/31/27 47/36/27
f 4/21/3 28/21/3 33/31/3 15/31/3
f 70/37/28 53/24/28 54/38/28
f 54/38/29 53/24/29 55/39/29
f 55/39/30 53/24/30 56/40/30
f 56/40/31 53/24/31 57/41/31
f 57/41/32 53/24/32 58/42/32
f 58/42/33 53/24/33 52/43/33
f 59/28/34 62/29/34 61/20/34 71/44/34 67/45/34 66/46/34 65/47/34 64/48/34 63/49/34
f 70/37/35 54/38/35 67/50/35 71/18/35
f 54/38/36 55/39/36 66/51/36 67/50/36
f 55/39/37 56/25/37 65/18/37 66/51/37
f 56/25/38 57/52/38 64/48/38 65/18/38
f 57/52/39 58/53/39 63/49/39 64/48/39
f 58/53/40 52/27/40 59/28/40 63/49/40
f 70/25/1 68/25/1 12/11/1 2/11/1 53/24/1
f 17/15/41 69/18/41 68/25/41 13/54/41
f 51/54/41 70/37/41 71/18/41 60/15/41
f 13/54/41 68/25/41 70/37/41 51/54/41
f 60/15/41 71/18/41 69/18/41 17/15/41
f 75/15/41 73/15/41 72/54/41 74/54/41
f 60/15/42 75/15/42 74/54/42 51/54/42
f 51/54/3 74/54/3 72/54/3 13/54/3
f 13/54/43 72/54/43 73/15/43 17/15/43
